<svg version="1.1" id="Layer_1" xmlns="http://www.w3.org/2000/svg" xmlns:xlink="http://www.w3.org/1999/xlink" x="0px" y="0px"
	 width="100%" viewBox="0 0 512 512" enable-background="new 0 0 512 512" xml:space="preserve">
<path fill="#000000" opacity="1.000000" stroke="none" 
	d="
M209.000000,513.000000 
	C193.312439,513.000000 177.624878,513.000000 161.178024,512.714844 
	C167.101990,508.058655 169.217957,502.050293 169.167725,493.980743 
	C168.841049,441.506683 169.000916,389.029602 168.999176,336.553528 
	C168.998840,326.765869 163.187149,321.003510 153.326645,321.000000 
	C142.914017,320.996307 137.001663,326.564484 137.000992,336.391907 
	C136.998413,374.707764 136.999969,413.023651 137.000000,451.339508 
	C137.000000,453.062439 137.000000,454.785370 137.000000,457.650055 
	C132.459244,453.051636 128.478455,449.689362 125.327293,445.675690 
	C120.331253,439.312195 105.698990,439.377380 100.791626,445.550812 
	C97.552856,449.625092 93.500679,453.052795 89.000000,457.589111 
	C89.000000,454.722351 89.000000,453.116730 89.000000,451.511139 
	C89.000000,413.195282 89.001183,374.879395 88.999191,336.563538 
	C88.998680,326.774628 83.186073,321.003601 73.336708,321.000000 
	C62.918907,320.996155 57.001381,326.561707 57.000965,336.381836 
	C56.998718,389.357697 57.083836,442.333832 56.899406,495.309052 
	C56.874897,502.348846 58.481518,507.916870 64.848572,511.528107 
	C65.097298,511.669189 64.958321,512.493835 65.000000,513.000000 
	C43.678265,513.000000 22.356529,513.000000 1.017397,513.000000 
	C1.017397,342.437714 1.017397,171.875427 1.017397,1.000000 
	C77.020607,1.000000 153.041641,1.000000 229.836121,1.299407 
	C227.885925,7.097693 225.245468,12.640336 222.389404,18.069555 
	C221.498901,19.762344 220.320343,21.985195 218.768600,22.531910 
	C211.613052,25.052973 204.815369,30.450428 196.504395,26.024952 
	C194.408951,24.909159 192.073212,24.252542 189.877121,23.316330 
	C184.474197,21.013012 179.847260,21.611305 175.957184,26.444235 
	C173.987961,28.890749 171.817947,31.355362 169.260300,33.117340 
	C158.315811,40.657055 155.806458,49.924858 162.187195,61.797207 
	C163.538086,64.310753 164.412964,68.101082 163.531265,70.608276 
	C160.498169,79.233131 156.944962,87.806023 146.472458,90.238487 
	C144.645233,90.662910 143.128677,92.337624 141.303726,92.877510 
	C137.598328,93.973724 136.932068,96.542999 136.968216,99.904678 
	C137.064743,108.881142 137.006363,117.859283 136.595459,126.908340 
	C132.118744,127.986839 128.036301,128.920502 123.997154,130.014114 
	C110.625076,133.634613 97.220070,137.152451 83.965485,141.164810 
	C82.242279,141.686447 79.949486,145.141037 80.270683,146.775131 
	C81.726082,154.179550 83.687538,161.539642 86.243042,168.636169 
	C86.932861,170.551758 90.458824,172.781647 92.483292,172.603119 
	C96.704506,172.230850 100.792480,170.347595 104.964783,169.547653 
	C105.003899,199.004715 105.013443,227.999313 104.557068,256.996338 
	C100.604034,257.001556 97.073845,256.684937 93.648643,257.146820 
	C92.025551,257.365692 89.328629,259.026245 89.289360,260.112183 
	C88.944588,269.647247 89.089729,279.200043 89.089729,288.769012 
	C90.648109,288.879456 91.468254,288.989624 92.288193,288.988129 
	C112.544556,288.951782 132.800903,288.903625 153.518524,288.920532 
	C196.473526,288.989014 238.967255,289.010529 281.460999,288.993256 
	C302.621674,288.984650 323.782318,288.904968 345.411133,288.911224 
	C366.746002,288.964996 387.612701,288.964996 408.985687,288.964996 
	C408.985687,279.337219 409.185272,270.240326 408.781982,261.170227 
	C408.717560,259.721375 406.101624,257.475708 404.402466,257.196228 
	C400.683502,256.584595 396.795807,256.998749 392.987793,256.525726 
	C393.021149,227.066299 393.043701,198.075027 393.429230,169.187561 
	C397.199585,170.208557 400.681580,170.915756 403.996460,172.093399 
	C408.686188,173.759476 411.003418,171.876740 412.150848,167.468033 
	C413.814667,161.075027 415.584869,154.709747 417.297089,148.329239 
	C418.549103,143.663666 417.140350,141.222565 412.571533,140.027634 
	C405.236816,138.109283 397.917908,136.129608 390.572205,134.254471 
	C380.718658,131.739182 370.845978,129.298813 360.987061,126.368546 
	C360.995056,117.418633 360.854980,108.922951 361.064331,100.435883 
	C361.159119,96.591026 360.106232,94.138725 356.302521,92.600464 
	C351.973663,90.849815 347.840881,88.559471 343.776489,86.235153 
	C342.000854,85.219719 339.961029,83.839157 339.149414,82.105576 
	C335.250397,73.776947 331.959625,65.305267 337.885315,56.367085 
	C338.802155,54.984161 338.681915,52.957119 339.331329,51.344791 
	C340.871735,47.520271 339.987030,44.396286 337.092621,41.602463 
	C334.098816,38.712711 331.227173,35.696926 328.265869,32.772923 
	C313.553772,18.246065 318.973969,20.217203 300.364044,26.567560 
	C291.028320,29.753229 283.688690,25.564100 278.319244,20.898260 
	C273.075439,16.341610 271.298706,7.795041 268.000000,1.000002 
	C349.624817,1.000000 431.249634,1.000000 512.937256,1.000000 
	C512.937256,171.666656 512.937256,342.333344 512.937256,513.000000 
	C480.904572,513.000000 448.920929,513.000000 416.207642,512.662964 
	C415.966797,511.909882 416.391083,511.278351 416.954041,511.109650 
	C427.872192,507.838135 437.004608,501.958008 444.379486,493.179077 
	C455.982086,479.367523 459.262543,463.299103 456.358948,446.095947 
	C454.258636,433.652252 448.061584,423.011047 438.212006,414.637848 
	C428.538971,406.414795 417.729767,401.520203 404.892120,400.911835 
	C397.164429,400.545624 389.795135,399.077087 384.042114,392.700439 
	C377.319794,385.249451 375.724213,374.045319 381.014893,364.968140 
	C386.080780,356.276611 397.587341,351.798035 407.118408,354.557892 
	C414.627014,356.732117 419.313873,361.851746 422.873444,368.452118 
	C426.953094,376.016937 436.596375,379.570404 444.100403,376.380035 
	C453.023621,372.586273 456.019592,363.709534 453.550049,356.491516 
	C449.970612,346.029480 443.137390,337.397278 433.888336,330.966675 
	C423.328949,323.625031 411.733246,320.492096 398.772491,320.873718 
	C380.164093,321.421692 365.831696,329.555695 355.086090,344.151306 
	C347.371826,354.629486 344.309998,366.596954 344.869049,379.808624 
	C345.646210,398.175079 353.827362,412.192108 368.133789,422.991608 
	C378.294525,430.661591 390.322021,432.651764 402.626892,434.074219 
	C417.296814,435.770050 424.822662,444.696289 423.897491,459.577301 
	C422.975250,474.411194 406.825409,484.778442 392.423706,478.396637 
	C387.337463,476.142761 382.954285,470.894012 379.795746,466.012543 
	C374.418274,457.701599 365.423676,454.371399 356.938873,458.618530 
	C347.704681,463.240692 345.467529,473.939697 350.957764,483.518921 
	C358.668701,496.972717 369.522919,506.374207 384.392700,511.053162 
	C385.065979,511.265076 385.470367,512.331543 386.000000,513.000000 
	C359.312439,513.000000 332.624878,513.000000 305.178223,512.713867 
	C311.075958,508.053253 313.220001,502.069275 313.169159,493.999603 
	C312.839264,441.674469 312.936127,389.346100 313.072968,337.019226 
	C313.092194,329.671844 310.295776,324.350433 303.531189,321.988037 
	C297.049225,319.724335 289.815155,320.327576 284.799957,325.588226 
	C276.638092,334.149567 268.131165,342.382294 259.747894,350.731628 
	C258.855438,351.620483 257.816467,352.362213 256.693695,353.298798 
	C247.272583,343.837494 237.960480,334.767517 228.995026,325.366943 
	C224.289581,320.433136 216.584274,319.832428 210.674835,321.895294 
	C203.737152,324.317047 201.000366,329.062561 201.000290,336.808197 
	C200.999756,389.135406 201.106277,441.463074 200.883057,493.789337 
	C200.850372,501.452789 202.074371,507.825348 209.173218,511.901337 
	C209.287918,511.967224 209.065231,512.620728 209.000000,513.000000 
z"/>
<path fill="#B3DAFE" opacity="1.000000" stroke="none" 
	d="
M137.009552,126.836754 
	C137.006363,117.859283 137.064743,108.881142 136.968216,99.904678 
	C136.932068,96.542999 137.598328,93.973724 141.303726,92.877510 
	C143.128677,92.337624 144.645233,90.662910 146.472458,90.238487 
	C156.944962,87.806023 160.498169,79.233131 163.531265,70.608276 
	C164.412964,68.101082 163.538086,64.310753 162.187195,61.797207 
	C155.806458,49.924858 158.315811,40.657055 169.260300,33.117340 
	C171.817947,31.355362 173.987961,28.890749 175.957184,26.444235 
	C179.847260,21.611305 184.474197,21.013012 189.877121,23.316330 
	C192.073212,24.252542 194.408951,24.909159 196.504395,26.024952 
	C204.815369,30.450428 211.613052,25.052973 218.768600,22.531910 
	C220.320343,21.985195 221.498901,19.762344 222.389404,18.069555 
	C225.245468,12.640336 227.885925,7.097693 230.304779,1.299407 
	C242.354233,1.000000 254.708450,1.000000 267.531342,1.000002 
	C271.298706,7.795041 273.075439,16.341610 278.319244,20.898260 
	C283.688690,25.564100 291.028320,29.753229 300.364044,26.567560 
	C318.973969,20.217203 313.553772,18.246065 328.265869,32.772923 
	C331.227173,35.696926 334.098816,38.712711 337.092621,41.602463 
	C339.987030,44.396286 340.871735,47.520271 339.331329,51.344791 
	C338.681915,52.957119 338.802155,54.984161 337.885315,56.367085 
	C331.959625,65.305267 335.250397,73.776947 339.149414,82.105576 
	C339.961029,83.839157 342.000854,85.219719 343.776489,86.235153 
	C347.840881,88.559471 351.973663,90.849815 356.302521,92.600464 
	C360.106232,94.138725 361.159119,96.591026 361.064331,100.435883 
	C360.854980,108.922951 360.995056,117.418633 360.607788,126.363678 
	C351.557159,124.493568 342.870239,122.246048 334.230530,119.829826 
	C321.447510,116.254890 308.697937,112.560173 295.964050,108.502945 
	C295.661804,106.012978 295.450226,103.908592 294.976837,101.864845 
	C292.797302,92.455154 288.374481,84.048073 281.117584,77.832497 
	C269.123718,67.559654 255.150345,64.020599 239.325699,66.903610 
	C218.349472,70.725159 203.419022,88.497719 201.761993,109.130295 
	C179.969406,115.169228 158.489487,121.002991 137.009552,126.836754 
z"/>
<path fill="#46CC8D" opacity="1.000000" stroke="none" 
	d="
M65.466858,513.000000 
	C64.958321,512.493835 65.097298,511.669189 64.848572,511.528107 
	C58.481518,507.916870 56.874897,502.348846 56.899406,495.309052 
	C57.083836,442.333832 56.998718,389.357697 57.000965,336.381836 
	C57.001381,326.561707 62.918907,320.996155 73.336708,321.000000 
	C83.186073,321.003601 88.998680,326.774628 88.999191,336.563538 
	C89.001183,374.879395 89.000000,413.195282 89.000000,451.511139 
	C89.000000,453.116730 89.000000,454.722351 89.000000,457.589111 
	C93.500679,453.052795 97.552856,449.625092 100.791626,445.550812 
	C105.698990,439.377380 120.331253,439.312195 125.327293,445.675690 
	C128.478455,449.689362 132.459244,453.051636 137.000000,457.650055 
	C137.000000,454.785370 137.000000,453.062439 137.000000,451.339508 
	C136.999969,413.023651 136.998413,374.707764 137.000992,336.391907 
	C137.001663,326.564484 142.914017,320.996307 153.326645,321.000000 
	C163.187149,321.003510 168.998840,326.765869 168.999176,336.553528 
	C169.000916,389.029602 168.841049,441.506683 169.167725,493.980743 
	C169.217957,502.050293 167.101990,508.058655 160.709366,512.714844 
	C155.977905,513.000000 150.955811,513.000000 145.757385,512.718140 
	C134.694138,501.884796 123.807220,491.333374 112.777809,480.643829 
	C103.406502,490.040375 94.358696,499.089752 85.344818,508.172821 
	C83.821739,509.707642 82.444588,511.387268 81.000000,513.000000 
	C75.977905,513.000000 70.955818,513.000000 65.466858,513.000000 
z"/>
<path fill="#46CC8D" opacity="1.000000" stroke="none" 
	d="
M209.466858,513.000000 
	C209.065231,512.620728 209.287918,511.967224 209.173218,511.901337 
	C202.074371,507.825348 200.850372,501.452789 200.883057,493.789337 
	C201.106277,441.463074 200.999756,389.135406 201.000290,336.808197 
	C201.000366,329.062561 203.737152,324.317047 210.674835,321.895294 
	C216.584274,319.832428 224.289581,320.433136 228.995026,325.366943 
	C237.960480,334.767517 247.272583,343.837494 256.693695,353.298798 
	C257.816467,352.362213 258.855438,351.620483 259.747894,350.731628 
	C268.131165,342.382294 276.638092,334.149567 284.799957,325.588226 
	C289.815155,320.327576 297.049225,319.724335 303.531189,321.988037 
	C310.295776,324.350433 313.092194,329.671844 313.072968,337.019226 
	C312.936127,389.346100 312.839264,441.674469 313.169159,493.999603 
	C313.220001,502.069275 311.075958,508.053253 304.709595,512.713867 
	C299.977905,513.000000 294.955811,513.000000 289.757324,512.714111 
	C282.911804,508.057678 280.745453,502.064667 280.829559,493.995117 
	C281.216370,456.874634 281.000000,419.747833 281.000000,382.623322 
	C281.000000,380.908295 281.000000,379.193237 281.000000,375.976990 
	C276.335693,380.848480 272.447784,384.301300 269.302704,388.333527 
	C264.343353,394.691803 249.772415,394.655426 244.800980,388.452911 
	C241.544403,384.389893 237.504913,380.954346 233.000000,376.415588 
	C233.000000,379.264191 233.000000,380.865173 233.000000,382.466187 
	C233.000000,419.590698 232.857529,456.716248 233.117264,493.838928 
	C233.170776,501.487061 231.931625,507.851288 224.826019,511.902679 
	C224.712387,511.967438 224.934555,512.621155 225.000000,513.000000 
	C219.977905,513.000000 214.955811,513.000000 209.466858,513.000000 
z"/>
<path fill="#46CC8D" opacity="1.000000" stroke="none" 
	d="
M386.468658,513.000000 
	C385.470367,512.331543 385.065979,511.265076 384.392700,511.053162 
	C369.522919,506.374207 358.668701,496.972717 350.957764,483.518921 
	C345.467529,473.939697 347.704681,463.240692 356.938873,458.618530 
	C365.423676,454.371399 374.418274,457.701599 379.795746,466.012543 
	C382.954285,470.894012 387.337463,476.142761 392.423706,478.396637 
	C406.825409,484.778442 422.975250,474.411194 423.897491,459.577301 
	C424.822662,444.696289 417.296814,435.770050 402.626892,434.074219 
	C390.322021,432.651764 378.294525,430.661591 368.133789,422.991608 
	C353.827362,412.192108 345.646210,398.175079 344.869049,379.808624 
	C344.309998,366.596954 347.371826,354.629486 355.086090,344.151306 
	C365.831696,329.555695 380.164093,321.421692 398.772491,320.873718 
	C411.733246,320.492096 423.328949,323.625031 433.888336,330.966675 
	C443.137390,337.397278 449.970612,346.029480 453.550049,356.491516 
	C456.019592,363.709534 453.023621,372.586273 444.100403,376.380035 
	C436.596375,379.570404 426.953094,376.016937 422.873444,368.452118 
	C419.313873,361.851746 414.627014,356.732117 407.118408,354.557892 
	C397.587341,351.798035 386.080780,356.276611 381.014893,364.968140 
	C375.724213,374.045319 377.319794,385.249451 384.042114,392.700439 
	C389.795135,399.077087 397.164429,400.545624 404.892120,400.911835 
	C417.729767,401.520203 428.538971,406.414795 438.212006,414.637848 
	C448.061584,423.011047 454.258636,433.652252 456.358948,446.095947 
	C459.262543,463.299103 455.982086,479.367523 444.379486,493.179077 
	C437.004608,501.958008 427.872192,507.838135 416.954041,511.109650 
	C416.391083,511.278351 415.966797,511.909882 415.738983,512.662964 
	C406.312439,513.000000 396.624878,513.000000 386.468658,513.000000 
z"/>
<path fill="#000000" opacity="1.000000" stroke="none" 
	d="
M225.468658,513.000000 
	C224.934555,512.621155 224.712387,511.967438 224.826019,511.902679 
	C231.931625,507.851288 233.170776,501.487061 233.117264,493.838928 
	C232.857529,456.716248 233.000000,419.590698 233.000000,382.466187 
	C233.000000,380.865173 233.000000,379.264191 233.000000,376.415588 
	C237.504913,380.954346 241.544403,384.389893 244.800980,388.452911 
	C249.772415,394.655426 264.343353,394.691803 269.302704,388.333527 
	C272.447784,384.301300 276.335693,380.848480 281.000000,375.976990 
	C281.000000,379.193237 281.000000,380.908295 281.000000,382.623322 
	C281.000000,419.747833 281.216370,456.874634 280.829559,493.995117 
	C280.745453,502.064667 282.911804,508.057678 289.290466,512.714111 
	C267.979095,513.000000 246.958206,513.000000 225.468658,513.000000 
z"/>
<path fill="#000000" opacity="1.000000" stroke="none" 
	d="
M81.468658,513.000000 
	C82.444588,511.387268 83.821739,509.707642 85.344818,508.172821 
	C94.358696,499.089752 103.406502,490.040375 112.777809,480.643829 
	C123.807220,491.333374 134.694138,501.884796 145.290527,512.718140 
	C123.979103,513.000000 102.958214,513.000000 81.468658,513.000000 
z"/>
<path fill="#D8ECFE" opacity="1.000000" stroke="none" 
	d="
M105.022980,256.993896 
	C105.013443,227.999313 105.003899,199.004715 105.293411,169.351105 
	C152.299988,156.139847 198.997208,143.548843 245.743118,131.141205 
	C248.286743,130.466064 251.361786,130.849915 253.979019,131.539490 
	C284.034424,139.458191 314.060577,147.488754 344.069855,155.581085 
	C360.426300,159.991791 376.735687,164.577164 393.066284,169.083771 
	C393.043701,198.075027 393.021149,227.066299 392.520569,256.528564 
	C376.402069,257.003754 360.761566,257.007935 345.078705,256.544495 
	C345.023682,235.701630 345.033142,215.326401 344.984161,194.951294 
	C344.970276,189.189514 343.701080,187.982315 337.959076,187.937424 
	C335.309845,187.916702 332.659912,187.988083 329.541077,187.995392 
	C273.107361,187.975342 217.142868,187.973831 161.178375,187.984756 
	C154.252029,187.986115 153.019028,189.219482 153.006943,196.087830 
	C152.971176,216.407715 152.952988,236.727615 152.464142,257.028381 
	C136.341232,257.004150 120.682106,256.999023 105.022980,256.993896 
z"/>
<path fill="#27A6FE" opacity="1.000000" stroke="none" 
	d="
M393.429230,169.187561 
	C376.735687,164.577164 360.426300,159.991791 344.069855,155.581085 
	C314.060577,147.488754 284.034424,139.458191 253.979019,131.539490 
	C251.361786,130.849915 248.286743,130.466064 245.743118,131.141205 
	C198.997208,143.548843 152.299988,156.139847 105.263832,168.888626 
	C100.792480,170.347595 96.704506,172.230850 92.483292,172.603119 
	C90.458824,172.781647 86.932861,170.551758 86.243042,168.636169 
	C83.687538,161.539642 81.726082,154.179550 80.270683,146.775131 
	C79.949486,145.141037 82.242279,141.686447 83.965485,141.164810 
	C97.220070,137.152451 110.625076,133.634613 123.997154,130.014114 
	C128.036301,128.920502 132.118744,127.986839 136.595459,126.908340 
	C158.489487,121.002991 179.969406,115.169228 202.155212,109.152710 
	C214.057129,105.976471 225.255081,102.990196 236.448349,99.986435 
	C242.009369,98.494118 247.236847,95.920555 253.446289,97.685745 
	C267.534607,101.690689 281.762817,105.203545 295.934143,108.916458 
	C308.697937,112.560173 321.447510,116.254890 334.230530,119.829826 
	C342.870239,122.246048 351.557159,124.493568 360.602234,126.821419 
	C370.845978,129.298813 380.718658,131.739182 390.572205,134.254471 
	C397.917908,136.129608 405.236816,138.109283 412.571533,140.027634 
	C417.140350,141.222565 418.549103,143.663666 417.297089,148.329239 
	C415.584869,154.709747 413.814667,161.075027 412.150848,167.468033 
	C411.003418,171.876740 408.686188,173.759476 403.996460,172.093399 
	C400.681580,170.915756 397.199585,170.208557 393.429230,169.187561 
z"/>
<path fill="#60B7FF" opacity="1.000000" stroke="none" 
	d="
M330.010284,188.017700 
	C332.659912,187.988083 335.309845,187.916702 337.959076,187.937424 
	C343.701080,187.982315 344.970276,189.189514 344.984161,194.951294 
	C345.033142,215.326401 345.023682,235.701630 345.031219,257.011383 
	C344.998383,268.249786 344.970703,278.553619 344.942993,288.857452 
	C323.782318,288.904968 302.621674,288.984650 281.460999,288.993256 
	C238.967255,289.010529 196.473526,288.989014 153.498123,288.464630 
	C153.069901,283.278839 153.123337,278.611908 153.632751,273.954773 
	C205.681137,273.967590 257.273529,273.974213 308.865936,273.971497 
	C323.219604,273.970734 329.961914,267.239594 329.972961,252.923904 
	C329.989685,231.288498 329.998260,209.653107 330.010284,188.017700 
z"/>
<path fill="#685E68" opacity="1.000000" stroke="none" 
	d="
M345.411163,288.911224 
	C344.970703,278.553619 344.998383,268.249786 345.073547,257.479065 
	C360.761566,257.007935 376.402069,257.003754 392.509827,256.996735 
	C396.795807,256.998749 400.683502,256.584595 404.402466,257.196228 
	C406.101624,257.475708 408.717560,259.721375 408.781982,261.170227 
	C409.185272,270.240326 408.985687,279.337219 408.985687,288.964996 
	C387.612701,288.964996 366.746002,288.964996 345.411163,288.911224 
z"/>
<path fill="#685E68" opacity="1.000000" stroke="none" 
	d="
M153.176773,273.945007 
	C153.123337,278.611908 153.069901,283.278839 153.036865,288.401672 
	C132.800903,288.903625 112.544556,288.951782 92.288193,288.988129 
	C91.468254,288.989624 90.648109,288.879456 89.089729,288.769012 
	C89.089729,279.200043 88.944588,269.647247 89.289360,260.112183 
	C89.328629,259.026245 92.025551,257.365692 93.648643,257.146820 
	C97.073845,256.684937 100.604034,257.001556 104.557068,256.996338 
	C120.682106,256.999023 136.341232,257.004150 152.492584,257.493256 
	C153.048813,263.299835 153.112793,268.622406 153.176773,273.945007 
z"/>
<path fill="#000000" opacity="1.000000" stroke="none" 
	d="
M295.964050,108.502945 
	C281.762817,105.203545 267.534607,101.690689 253.446289,97.685745 
	C247.236847,95.920555 242.009369,98.494118 236.448349,99.986435 
	C225.255081,102.990196 214.057129,105.976471 202.467865,108.947540 
	C203.419022,88.497719 218.349472,70.725159 239.325699,66.903610 
	C255.150345,64.020599 269.123718,67.559654 281.117584,77.832497 
	C288.374481,84.048073 292.797302,92.455154 294.976837,101.864845 
	C295.450226,103.908592 295.661804,106.012978 295.964050,108.502945 
z"/>
<path fill="#89C9FE" opacity="1.000000" stroke="none" 
	d="
M153.632767,273.954773 
	C153.112793,268.622406 153.048813,263.299835 152.956375,257.512390 
	C152.952988,236.727615 152.971176,216.407715 153.006943,196.087830 
	C153.019028,189.219482 154.252029,187.986115 161.178375,187.984756 
	C217.142868,187.973831 273.107361,187.975342 329.541077,187.995392 
	C329.998260,209.653107 329.989685,231.288498 329.972961,252.923904 
	C329.961914,267.239594 323.219604,273.970734 308.865936,273.971497 
	C257.273529,273.974213 205.681137,273.967590 153.632767,273.954773 
M254.500000,262.998779 
	C273.806946,262.998108 293.114014,263.037781 312.420715,262.970154 
	C317.662628,262.951782 320.863800,259.839600 320.906921,255.142166 
	C320.943542,251.150360 317.290253,247.988220 312.458191,247.986237 
	C270.182709,247.968903 227.907181,247.957047 185.631836,248.039413 
	C183.772842,248.043030 181.127975,248.393570 180.234650,249.604568 
	C178.741653,251.628494 177.382263,254.630173 177.739044,256.947388 
	C178.383881,261.135742 181.532837,263.080139 186.092560,263.054901 
	C208.561111,262.930542 231.030746,262.998627 254.500000,262.998779 
M203.500153,213.998535 
	C197.505875,213.999466 191.472321,213.601913 185.535568,214.186829 
	C182.966309,214.439972 179.585709,216.112045 178.331802,218.196976 
	C174.976166,223.776566 179.032349,228.988388 186.352142,228.996872 
	C217.988770,229.033569 249.625473,229.013626 281.262146,229.013687 
	C291.585693,229.013702 301.922638,229.297333 312.223511,228.813599 
	C314.852753,228.690125 318.458038,226.761887 319.722107,224.570862 
	C322.969177,218.942703 318.857941,214.014923 311.398712,214.009827 
	C275.765839,213.985458 240.132950,213.998688 203.500153,213.998535 
z"/>
<path fill="#60B7FF" opacity="1.000000" stroke="none" 
	d="
M254.000000,262.998779 
	C231.030746,262.998627 208.561111,262.930542 186.092560,263.054901 
	C181.532837,263.080139 178.383881,261.135742 177.739044,256.947388 
	C177.382263,254.630173 178.741653,251.628494 180.234650,249.604568 
	C181.127975,248.393570 183.772842,248.043030 185.631836,248.039413 
	C227.907181,247.957047 270.182709,247.968903 312.458191,247.986237 
	C317.290253,247.988220 320.943542,251.150360 320.906921,255.142166 
	C320.863800,259.839600 317.662628,262.951782 312.420715,262.970154 
	C293.114014,263.037781 273.806946,262.998108 254.000000,262.998779 
z"/>
<path fill="#60B7FF" opacity="1.000000" stroke="none" 
	d="
M204.000107,213.998535 
	C240.132950,213.998688 275.765839,213.985458 311.398712,214.009827 
	C318.857941,214.014923 322.969177,218.942703 319.722107,224.570862 
	C318.458038,226.761887 314.852753,228.690125 312.223511,228.813599 
	C301.922638,229.297333 291.585693,229.013702 281.262146,229.013687 
	C249.625473,229.013626 217.988770,229.033569 186.352142,228.996872 
	C179.032349,228.988388 174.976166,223.776566 178.331802,218.196976 
	C179.585709,216.112045 182.966309,214.439972 185.535568,214.186829 
	C191.472321,213.601913 197.505875,213.999466 204.000107,213.998535 
z"/>
</svg>